<svg width="24" height="24" viewBox="0 0 24 24" fill="none" xmlns="http://www.w3.org/2000/svg">
<path fill-rule="evenodd" clip-rule="evenodd" d="M17.2929 3.7071L18.5858 4.99999H3.00003H2.00003V5.99999V13H4.00003V6.99999H18.5858L17.2929 8.29288L18.7071 9.7071L21.7071 6.7071L22.4142 5.99999L21.7071 5.29288L18.7071 2.29288L17.2929 3.7071ZM15 16H19V12H17.5V14.5H15V16ZM12 15C12.8334 15 13.5417 14.7083 14.125 14.125C14.7084 13.5417 15 12.8333 15 12C15 11.1667 14.7084 10.4583 14.125 9.87499C13.5417 9.29166 12.8334 8.99999 12 8.99999C11.1667 8.99999 10.4584 9.29166 9.87502 9.87499C9.29169 10.4583 9.00002 11.1667 9.00002 12C9.00002 12.8333 9.29169 13.5417 9.87502 14.125C10.4584 14.7083 11.1667 15 12 15ZM5.00003 12H6.50003V9.49999H9.00002V7.99999H5.00003V12ZM20 11V17H5.41424L6.70714 15.7071L5.29292 14.2929L2.29292 17.2929L1.58582 18L2.29292 18.7071L5.29292 21.7071L6.70714 20.2929L5.41424 19H21H22V18V11H20Z" fill="#001B2E"/>
</svg>
